<?xml version="1.0" encoding="iso-8859-1"?>
<!-- Generator: Adobe Illustrator 19.0.0, SVG Export Plug-In . SVG Version: 6.00 Build 0)  -->
<svg version="1.1" id="Layer_1" xmlns="http://www.w3.org/2000/svg" xmlns:xlink="http://www.w3.org/1999/xlink" x="0px" y="0px"
	 viewBox="0 0 496 496" style="enable-background:new 0 0 496 496;" width="25" height="25" xml:space="preserve">
<g>
	<g>
		<path fill="#FFF" d="M435.2,108.8H169.6c-33.6,0-60.8,27.2-60.8,60.8v265.6c0,33.6,27.2,60.8,60.8,60.8h265.6c33.6,0,60.8-27.2,60.8-60.8
			V169.6C496,136,468.8,108.8,435.2,108.8z M464,435.2c0,16-12.8,28.8-28.8,28.8H169.6c-16,0-28.8-12.8-28.8-28.8V169.6
			c0-16,12.8-28.8,28.8-28.8h265.6c16,0,28.8,12.8,28.8,28.8V435.2z"/>
	</g>
</g>
<g>
	<g>
		<path fill="#FFF" d="M321.6,0H54.4C20.8,0,0,32,0,64v265.6c0,33.6,22.4,57.6,54.4,57.6h70.4c8,0,14.4-6.4,14.4-16c0-9.6-6.4-16-16-16H54.4
			c-20.8,0-22.4-17.6-22.4-25.6V64c0-16,8-32,22.4-32h267.2c16,0,33.6,17.6,33.6,32v60.8c0,9.6,6.4,16,16,16c9.6,0,16-6.4,16-16V64
			C387.2,30.4,355.2,0,321.6,0z"/>
	</g>
</g>
<g>
</g>
<g>
</g>
<g>
</g>
<g>
</g>
<g>
</g>
<g>
</g>
<g>
</g>
<g>
</g>
<g>
</g>
<g>
</g>
<g>
</g>
<g>
</g>
<g>
</g>
<g>
</g>
<g>
</g>
</svg>
