<?xml version="1.0" encoding="iso-8859-1"?>
<!-- Generator: Adobe Illustrator 19.0.0, SVG Export Plug-In . SVG Version: 6.00 Build 0)  -->
<svg version="1.1" id="Capa_1" xmlns="http://www.w3.org/2000/svg" xmlns:xlink="http://www.w3.org/1999/xlink" x="0px" y="0px"
	 viewBox="0 0 480 480" style="enable-background:new 0 0 480 480;" xml:space="preserve">
<g>
	<g>
		<g>
			<path fill="#fff" d="M472,128H72c-13.255,0-24,10.745-24,24v32H24c-13.255,0-24,10.745-24,24v64c0,13.255,10.745,24,24,24h24v32
				c0,13.255,10.745,24,24,24h400c4.418,0,8-3.582,8-8V136C480,131.582,476.418,128,472,128z M48,280H24c-4.418,0-8-3.582-8-8v-64
				c0-4.418,3.582-8,8-8h24V280z M464,336H72c-4.418,0-8-3.582-8-8V152c0-4.418,3.582-8,8-8h392V336z"/>
			<path fill="#fff" d="M88,320h352c4.418,0,8-3.582,8-8V168c0-4.418-3.582-8-8-8H88c-4.418,0-8,3.582-8,8v144C80,316.418,83.582,320,88,320z
				 M96,176h336v128H96V176z"/>
		</g>
	</g>
</g>
<g>
</g>
<g>
</g>
<g>
</g>
<g>
</g>
<g>
</g>
<g>
</g>
<g>
</g>
<g>
</g>
<g>
</g>
<g>
</g>
<g>
</g>
<g>
</g>
<g>
</g>
<g>
</g>
<g>
</g>
</svg>
