<?xml version="1.0" encoding="iso-8859-1"?>
<!-- Generator: Adobe Illustrator 19.0.0, SVG Export Plug-In . SVG Version: 6.00 Build 0)  -->
<svg version="1.1" id="Capa_1" xmlns="http://www.w3.org/2000/svg" xmlns:xlink="http://www.w3.org/1999/xlink" x="0px" y="0px"
	 viewBox="0 0 512 512" style="enable-background:new 0 0 512 512;" xml:space="preserve">
<path style="fill:#FFA000;" d="M432,216H80c-8.832,0-16,7.168-16,16v144c0,6.72,4.192,12.736,10.528,15.04l176,112
	c1.76,0.64,3.616,0.96,5.472,0.96c1.856,0,3.712-0.32,5.472-0.96l176-112C443.776,388.736,448,382.72,448,376V232
	C448,223.168,440.832,216,432,216z"/>
<path style="fill:#FFC107;" d="M432,216H256v288c1.856,0,3.712-0.32,5.472-0.96l176-112C443.776,388.736,448,382.72,448,376V232
	C448,223.168,440.832,216,432,216z"/>
<g>
	<polygon style="fill:#FFD54F;" points="256.32,46.4 66.88,160 0,120 192.32,8 	"/>
	<polygon style="fill:#FFD54F;" points="512,200 320.64,312 256.32,273.6 445.44,160 	"/>
</g>
<polygon style="fill:#FFA000;" points="445.44,160 256.32,273.6 66.88,160 256.32,46.4 "/>
<g>
	<polygon style="fill:#FFD54F;" points="66.88,160 256.32,273.6 192.32,312 0,200 	"/>
	<polygon style="fill:#FFD54F;" points="512,120 445.44,160 256.32,46.4 320.64,8 	"/>
</g>
<g>
</g>
<g>
</g>
<g>
</g>
<g>
</g>
<g>
</g>
<g>
</g>
<g>
</g>
<g>
</g>
<g>
</g>
<g>
</g>
<g>
</g>
<g>
</g>
<g>
</g>
<g>
</g>
<g>
</g>
</svg>
