<svg height="18" viewBox="0 0 512 512" width="18" xmlns="http://www.w3.org/2000/svg"><path fill="#666" d="m512 256c0 50.53125-15 99.675781-43.375 142.117188-6.136719 9.183593-18.558594 11.648437-27.742188 5.511718-9.183593-6.140625-11.648437-18.5625-5.511718-27.742187 23.964844-35.84375 36.628906-77.296875 36.628906-119.886719 0-119.101562-96.898438-216-216-216s-216 96.898438-216 216 96.898438 216 216 216c39.503906 0 78.144531-10.757812 111.738281-31.105469 9.445313-5.722656 21.746094-2.703125 27.46875 6.746094 5.722657 9.445313 2.703125 21.742187-6.746093 27.464844-39.84375 24.136719-85.648438 36.894531-132.460938 36.894531-68.378906 0-132.667969-26.628906-181.019531-74.980469-48.351563-48.351562-74.980469-112.640625-74.980469-181.019531s26.628906-132.667969 74.980469-181.019531c48.351562-48.351563 112.640625-74.980469 181.019531-74.980469s132.667969 26.628906 181.019531 74.980469c48.351563 48.351562 74.980469 112.640625 74.980469 181.019531zm-255.992188 124c-11.046874 0-20 8.953125-20 20s8.953126 20 20 20c11.042969 0 20-8.953125 20-20s-8.957031-20-20-20zm41.988282-84.539062c39.507812-16.867188 65.03125-55.519532 65.019531-98.476563 0-.335937-.007813-.671875-.023437-1.007813-.546876-58.527343-48.332032-105.976562-106.984376-105.976562-58.996093 0-106.992187 47.996094-106.992187 106.988281 0 11.046875 8.953125 20 20 20s20-8.953125 20-20c0-36.9375 30.050781-66.988281 66.992187-66.988281 36.9375 0 66.988282 30.050781 66.988282 66.988281 0 .273438.003906.539063.015625.808594-.308594 26.582031-16.222657 50.417969-40.722657 60.878906-27.683593 11.816407-46.28125 40.480469-46.28125 71.324219 0 11.046875 8.953126 20 20 20 11.042969 0 20-8.953125 20-20 0-15.042969 8.835938-28.921875 21.988282-34.539062zm0 0"/></svg>