<?xml version="1.0" encoding="iso-8859-1"?>
<!-- Generator: Adobe Illustrator 19.0.0, SVG Export Plug-In . SVG Version: 6.00 Build 0)  -->
<svg version="1.1" id="Capa_1" xmlns="http://www.w3.org/2000/svg" xmlns:xlink="http://www.w3.org/1999/xlink" x="0px" y="0px"
	 viewBox="0 0 512 512" style="enable-background:new 0 0 512 512;" width="18" height="18" xml:space="preserve">
<path style="fill:#54BBFF;" d="M256,0l-61.811,256L256,512c141.385,0,256-114.615,256-256S397.385,0,256,0z"/>
<path style="fill:#8DD2FF;" d="M0,256c0,141.385,114.615,256,256,256V0C114.615,0,0,114.615,0,256z"/>
<path style="fill:#0789DE;" d="M256,30.905v450.189c124.316,0,225.095-100.778,225.095-225.095S380.316,30.905,256,30.905z"/>
<path style="fill:#2EA2EF;" d="M450.189,256c0-124.316-86.941-225.095-194.189-225.095C131.684,30.905,30.905,131.684,30.905,256
	S131.684,481.095,256,481.095C363.248,481.095,450.189,380.316,450.189,256z"/>
<g>
	<circle style="fill:#FFFFFF;" cx="256" cy="137.014" r="20.604"/>
	<path style="fill:#FFFFFF;" d="M256,188.523c-11.379,0-20.604,9.224-20.604,20.604v165.859c0,11.379,9.224,20.604,20.604,20.604
		c11.379,0,20.604-9.224,20.604-20.604V209.127C276.604,197.747,267.379,188.523,256,188.523z"/>
</g>
<g>
</g>
<g>
</g>
<g>
</g>
<g>
</g>
<g>
</g>
<g>
</g>
<g>
</g>
<g>
</g>
<g>
</g>
<g>
</g>
<g>
</g>
<g>
</g>
<g>
</g>
<g>
</g>
<g>
</g>
</svg>
